HIERARCHY
ROOT Hips
{
	OFFSET 0.000000 0.000000 0.000000
	CHANNELS 6 Xposition Yposition Zposition Zrotation Yrotation Xrotation 
	JOINT LHipJoint
	{
		OFFSET 0.000000 0.000000 0.000000
		CHANNELS 3 Zrotation Yrotation Xrotation
		JOINT LeftUpLeg
		{
			OFFSET 1.363060 -1.794630 0.839290
			CHANNELS 3 Zrotation Yrotation Xrotation
			JOINT LeftLeg
			{
				OFFSET 2.448110 -6.726130 0.000000
				CHANNELS 3 Zrotation Yrotation Xrotation
				JOINT LeftFoot
				{
					OFFSET 2.562200 -7.039590 0.000000
					CHANNELS 3 Zrotation Yrotation Xrotation
					JOINT LeftToeBase
					{
						OFFSET 0.157640 -0.433110 2.322550
						CHANNELS 3 Zrotation Yrotation Xrotation
						End Site
						{
							OFFSET 0.000000 0.000000 0.000000
						}
					}
				}
			}
		}
	}
	JOINT RHipJoint
	{
		OFFSET 0.000000 0.000000 0.000000
		CHANNELS 3 Zrotation Yrotation Xrotation
		JOINT RightUpLeg
		{
			OFFSET -1.305520 -1.794630 0.839290
			CHANNELS 3 Zrotation Yrotation Xrotation
			JOINT RightLeg
			{
				OFFSET -2.542530 -6.985550 0.000000
				CHANNELS 3 Zrotation Yrotation Xrotation
				JOINT RightFoot
				{
					OFFSET -2.568260 -7.056230 0.000000
					CHANNELS 3 Zrotation Yrotation Xrotation
					JOINT RightToeBase
					{
						OFFSET -0.164730 -0.452590 2.363150
						CHANNELS 3 Zrotation Yrotation Xrotation
						End Site
						{
							OFFSET 0.000000 0.000000 0.000000
						}
					}
				}
			}
		}
	}
}
MOTION
Frames: 22
Frame Time: 0.008333
-21.518760 16.802281 -0.432987 29.510062 85.723764 42.718568 -8.900649 0.721309 4.434564 -12.438600 -1.936615 -42.147152 -2.183656 0.255512 22.284684 0.785077 5.367678 2.353116 1.453900 0.000000 -21.192900 11.070837 -5.163087 1.509222 2.674655 -5.708212 5.180820 1.302636 -1.393045 17.476320 0.026808 1.964900 5.757826 0.249800 0.000000 -74.823999
-21.370146 16.833825 -0.454765 30.011682 85.569258 43.026022 -8.853459 0.821462 4.404473 -12.793896 -1.703768 -41.292023 -2.231951 0.215098 22.270152 0.788136 5.299245 1.669077 1.357100 0.000000 -20.925500 11.246895 -5.228762 1.495480 2.069670 -6.176050 4.118931 1.095552 -1.627634 19.885220 -0.002586 2.214505 7.662029 0.413300 0.000000 -76.426500
-21.225318 16.865435 -0.477793 30.326585 85.386497 43.157373 -8.813050 0.918586 4.377561 -13.126150 -1.492434 -40.387880 -2.280855 0.164807 22.128091 0.798843 5.281905 1.021862 1.274000 0.000000 -20.648900 11.418409 -5.266277 1.469852 1.471678 -6.667439 2.926920 0.870859 -1.849501 22.452807 -0.065472 2.381662 9.675911 0.588300 0.000000 -77.525599
-21.084358 16.896715 -0.501838 30.491653 85.184953 43.152219 -8.778537 1.011025 4.352119 -13.435119 -1.303800 -39.453817 -2.328532 0.107251 21.879414 0.816363 5.313523 0.425569 1.204500 -0.000000 -20.356200 11.583545 -5.271792 1.435047 0.900267 -7.158415 1.628978 0.633475 -2.052584 25.138028 -0.166600 2.416241 11.786622 0.751600 0.000001 -78.013800
-20.947147 16.927350 -0.526590 30.584138 84.975214 43.087190 -8.745942 1.098787 4.327020 -13.725367 -1.141513 -38.500055 -2.374128 0.044354 21.542642 0.839518 5.390079 -0.111388 1.147600 0.000000 -20.046000 11.744244 -5.242463 1.392293 0.364553 -7.637857 0.250705 0.391211 -2.232536 27.901642 -0.306645 2.283451 13.961024 0.875300 0.000001 -77.803200
-20.813886 16.957123 -0.551807 30.661516 84.768465 43.016767 -8.712805 1.181469 4.300050 -13.999365 -1.004791 -37.534157 -2.417161 -0.021747 21.138270 0.866338 5.500472 -0.588309 1.100900 0.000000 -19.720800 11.900146 -5.176850 1.341487 -0.125271 -8.096467 -1.180042 0.154238 -2.387470 30.704105 -0.482640 1.954781 16.142927 0.925801 0.000000 -76.848300
-20.684198 16.985942 -0.577193 30.786675 84.574702 42.997951 -8.676171 1.259718 4.270108 -14.260759 -0.893097 -36.556310 -2.457879 -0.089646 20.681019 0.894827 5.632880 -1.008572 1.061900 0.000000 -19.386300 12.051709 -5.076144 1.282089 -0.566221 -8.532308 -2.636497 -0.067232 -2.518573 33.509707 -0.687805 1.415096 18.257185 0.869900 0.000000 -75.182200
-20.558035 17.013820 -0.602740 30.982175 84.402437 43.047560 -8.636289 1.333584 4.235294 -14.509604 -0.800569 -35.565352 -2.496552 -0.157740 20.185600 0.922550 5.770680 -1.380381 1.027200 0.000000 -19.049099 12.195977 -4.944100 1.212909 -0.952380 -8.942451 -4.094187 -0.264827 -2.630006 36.285206 -0.912811 0.656376 20.214568 0.678000 -0.000000 -72.929000
-20.434872 17.040823 -0.628488 31.235076 84.258159 43.148295 -8.596422 1.402616 4.193593 -14.741744 -0.715421 -34.563159 -2.533524 -0.224354 19.667039 0.946656 5.892726 -1.715972 0.992400 0.000000 -18.713300 12.327567 -4.787279 1.133287 -1.274956 -9.322312 -5.533451 -0.434108 -2.728026 39.002317 -1.147101 -0.319063 21.921854 0.331400 -0.000000 -70.290200
-20.314686 17.067064 -0.654499 31.549062 84.144739 43.298732 -8.558196 1.467653 4.145192 -14.955734 -0.632243 -33.543439 -2.569322 -0.289064 19.127879 0.965528 5.987661 -2.022383 0.955600 0.000000 -18.385900 12.444219 -4.613210 1.043122 -1.533668 -9.671727 -6.941644 -0.575509 -2.819655 41.639410 -1.380415 -1.490132 23.295498 -0.168100 0.000000 -67.508500
-20.196980 17.092671 -0.681034 31.874775 84.064468 43.449778 -8.527526 1.527761 4.088622 -15.143791 -0.537028 -32.510915 -2.604038 -0.350785 18.577380 0.976957 6.037722 -2.310893 0.913600 0.000000 -18.069100 12.539999 -4.430069 0.942946 -1.718390 -9.983904 -8.313265 -0.693026 -2.911245 44.179917 -1.604010 -2.824489 24.265238 -0.800000 -0.000000 -64.799700
-20.081422 17.117768 -0.708224 32.184408 84.016673 43.572364 -8.508213 1.583494 4.025167 -15.301248 -0.422493 -31.464349 -2.637707 -0.409572 18.014245 0.980060 6.036059 -2.585454 0.866001 -0.000000 -17.767500 12.612406 -4.245472 0.835046 -1.826582 -10.255067 -9.647054 -0.793078 -3.007298 46.611569 -1.811026 -4.270704 24.783109 -1.520900 -0.000000 -62.311000
-19.967504 17.142415 -0.736216 32.433263 84.000235 43.624428 -8.504868 1.634583 3.955350 -15.422370 -0.280039 -30.409228 -2.670114 -0.465285 17.439946 0.974127 5.976235 -2.849812 0.812400 0.000001 -17.483500 12.658544 -4.065535 0.721901 -1.853264 -10.479944 -10.946964 -0.882279 -3.110153 48.924582 -1.996454 -5.766243 24.824072 -2.272700 -0.000000 -60.107300
-19.854996 17.166612 -0.765164 32.584303 84.013039 43.572353 -8.520802 1.681217 3.880402 -15.503026 -0.103650 -29.351308 -2.700940 -0.518076 16.853976 0.959062 5.856694 -3.104093 0.753800 -0.000000 -17.220700 12.677172 -3.894733 0.606947 -1.796623 -10.654202 -12.218574 -0.966057 -3.219772 51.108574 -2.156860 -7.241555 24.389577 -2.990000 0.000000 -58.180400
-19.743850 17.190321 -0.795054 32.610597 84.051738 43.393109 -8.557792 1.723884 3.801812 -15.541569 0.109475 -28.297267 -2.729898 -0.568128 16.255442 0.935261 5.679605 -3.345920 0.691800 0.000000 -16.983000 12.668431 -3.735585 0.493860 -1.657738 -10.774592 -13.467272 -1.047702 -3.334122 53.152031 -2.290015 -8.627494 23.507525 -3.610700 -0.000000 -56.472200
-19.633571 17.213426 -0.825822 32.494422 84.112475 43.072529 -8.616091 1.763353 3.720966 -15.538950 0.360574 -27.254259 -2.756807 -0.615549 15.644849 0.903419 5.449137 -3.572347 0.628500 0.000001 -16.774600 12.633691 -3.588874 0.386520 -1.441357 -10.839293 -14.697233 -1.127977 -3.449669 55.041189 -2.394594 -9.862575 22.230749 -4.085801 -0.000000 -54.899800
-19.524054 17.235775 -0.857304 32.232098 84.190916 42.610316 -8.694201 1.800742 3.639346 -15.498326 0.647571 -26.227981 -2.781619 -0.660437 15.022617 0.864455 5.171399 -3.778996 0.565700 0.000000 -16.599799 12.575678 -3.453891 0.288454 -1.156191 -10.848653 -15.910324 -1.205437 -3.562156 56.762129 -2.470045 -10.898610 20.632853 -4.386200 0.000000 -53.365900
-19.415107 17.257177 -0.889313 31.831957 84.283093 42.017696 -8.789412 1.837148 3.557689 -15.425336 0.968106 -25.225255 -2.804613 -0.702576 14.392989 0.819183 4.850951 -3.963715 0.505001 -0.000000 -16.462000 12.497790 -3.328530 0.202626 -0.812885 -10.804446 -17.107154 -1.277125 -3.667049 58.300714 -2.516899 -11.706284 18.806540 -4.506799 0.000000 -51.826200
-19.306851 17.277413 -0.921578 31.319732 84.385063 41.321273 -8.897655 1.873902 3.476927 -15.326850 1.316907 -24.248767 -2.826196 -0.741868 13.759223 0.768549 4.493471 -4.124359 0.447400 -0.000000 -16.363800 12.404466 -3.210051 0.131019 -0.425493 -10.712265 -18.286276 -1.339539 -3.760502 59.645875 -2.536319 -12.273109 16.849936 -4.463200 0.000000 -50.229300
-19.199127 17.296306 -0.953837 30.730667 84.494317 40.556746 -9.014413 1.912050 3.397470 -15.210501 1.688346 -23.300500 -2.846968 -0.778144 13.126688 0.713352 4.102678 -4.261715 0.393500 -0.000000 -16.305800 12.300256 -3.095378 0.074533 -0.008667 -10.579799 -19.445623 -1.389532 -3.839594 60.789879 -2.530483 -12.604565 14.861658 -4.287500 -0.000000 -48.573700
-19.091787 17.313679 -0.985838 30.110833 84.608997 39.768171 -9.135072 1.952429 3.319702 -15.083385 2.074938 -22.377892 -2.867433 -0.811357 12.499218 0.654446 3.682887 -4.376943 0.343500 -0.000000 -16.286800 12.189620 -2.981588 0.032804 0.423156 -10.417079 -20.581877 -1.424972 -3.902648 61.728848 -2.502326 -12.719904 12.929767 -4.019500 0.000000 -46.871599
-18.984744 17.329340 -1.017396 29.504965 84.729162 38.999900 -9.255612 1.995319 3.243531 -14.951553 2.470781 -21.480120 -2.888201 -0.841463 11.883474 0.592403 3.235063 -4.475180 0.296900 -0.000000 -16.303000 12.076302 -2.866335 0.004814 0.858359 -10.234509 -21.693543 -1.444939 -3.949123 62.463086 -2.455535 -12.649082 11.126673 -3.700400 0.000000 -45.199501
